<?xml version="1.0" encoding="utf-8"?>
<!-- Generator: Adobe Illustrator 25.3.1, SVG Export Plug-In . SVG Version: 6.00 Build 0)  -->
<svg version="1.1" id="Layer_1" xmlns="http://www.w3.org/2000/svg" xmlns:xlink="http://www.w3.org/1999/xlink" x="0px" y="0px"
	 width="200px" height="59px" viewBox="0 0 200 59" style="enable-background:new 0 0 200 59;" xml:space="preserve">
<style type="text/css">
	.st0{fill:#009AD4;}
	.st1{fill:none;stroke:#FFFFFF;stroke-width:0.7754;stroke-miterlimit:10;}
	.st2{fill:#FFFFFF;}
	.st3{fill:#FFC72B;}
</style>
<g>
	<path class="st0" d="M49.5381,21.1078c1.4174,2.3865,4.535,7.6358,4.535,7.6358s-0.8648,2.2508-2.7738,5.6256l2.7515,4.5053
		l-3.8764,0.3205l-0.2749,5.9962l-2.9289-4.3018c-4.3167,5.8671-10.7088,12.6558-19.8782,17.4546
		c-9.1704-4.7988-15.6701-11.5903-19.986-17.4574l-2.9261,4.3103l-0.2898-5.9981L0,38.8828l2.8807-4.7524
		c-1.9239-3.3497-2.7701-5.3869-2.7701-5.3869s3.4168-5.8128,4.5164-7.6887c7.687,21.7774,22.468,28.6222,22.468,28.6222
		S41.893,42.6905,49.5381,21.1078z"/>
	<path class="st0" d="M3.0404,0c0,0-2.4217,30.128,24.0472,47.054C53.5566,30.128,51.1441,0,51.1441,0
		C29.34,3.5045,25.2232,3.5045,3.0404,0z"/>
	<path class="st1" d="M5.0681,2.3386c0,0-0.9408,27.1626,22.0065,42.3486C50.4446,29.313,49.0491,2.3386,49.0491,2.3386
		C29.4254,5.4927,25.0326,5.4927,5.0681,2.3386z"/>
	<g>
		<path class="st2" d="M27.0951,57.6537l-0.1315-0.0697C8.4705,47.7931,0.9601,29.0659,0.8867,28.8777l-0.0502-0.1281l3.661-6.1356
			l0.2085,0.5359c7.7817,19.9976,21.0431,26.573,22.3863,27.1949c1.3432-0.6233,14.6093-7.2131,22.3854-27.1949l0.209-0.5359
			l3.661,6.1356l-0.0502,0.1281c-0.0743,0.1877-7.5763,18.9149-26.0709,28.7063L27.0951,57.6537z M1.4613,28.7988
			c0.6869,1.6503,8.2187,18.9321,25.6338,28.2186c17.424-9.2902,24.9418-26.5683,25.6273-28.2186l-2.9307-4.9117
			C41.5112,44.6547,27.345,50.8516,27.2019,50.912l-0.1096,0.0464l-0.1096-0.0464C26.8397,50.8516,12.672,44.6547,4.392,23.887
			L1.4613,28.7988z"/>
	</g>
	<g>
		<polygon class="st2" points="30.8211,11.9183 32.2079,13.7116 31.3665,15.3424 31.8341,18.6964 33.5788,20.3787 35.8842,21.2511 
			37.8781,21.2511 40.4328,20.0672 42.2397,18.2602 42.8005,16.3932 42.8005,14.3347 42.5004,12.5278 40.6197,10.8454 
			38.7504,9.8768 36.6628,9.35 34.1395,9.8768 31.5348,10.97 		"/>
		<path class="st3" d="M39.8876,10.8281c-0.5814-0.3689-1.2242-0.6409-1.8954-0.7948c-1.1349-0.2602-2.3251-0.1768-3.4377,0.1481
			c-0.5631,0.1644-1.108,0.3898-1.6263,0.6643c-0.323,0.1711-1.0603,0.5589-1.2091,0.9179
			c-0.1994,0.4808,0.1985,0.728,0.4754,1.0039c0.4944,0.4745,1.2643-0.5131,1.8984-0.7697c2.3649-1.2314,5.3045,0.056,6.1672,2.5314
			c0.5713,1.6393-0.2599,3.16-1.8116,3.8146c-0.7474,0.3153-1.5991,0.4361-2.3769,0.2055
			c-0.9269-0.2747-1.5995-1.0258-1.6728-1.9902c-0.0353-0.465,0.1228-0.9344,0.4395-1.2789
			c0.208-0.2263,0.5016-0.3999,0.8079-0.3737c0.3063,0.0261,0.5947,0.3107,0.5449,0.614c-0.0411,0.2506-0.2813,0.4335-0.3215,0.6843
			c-0.1641,1.0244,1.4242,0.9618,1.9942,0.7101c0.4793-0.2117,0.8262-0.6755,0.9447-1.1859
			c0.1185-0.5104,0.0212-1.0582-0.2189-1.5239c-0.4417-0.8569-1.3536-1.4252-2.3097-1.548
			c-1.5908-0.2044-3.4036,0.729-4.0104,2.2468c-0.3545,0.8868-0.3885,1.8979-0.0943,2.8065
			c0.2942,0.9086,0.9143,1.7079,1.7214,2.2186c0.6302,0.3988,1.3623,0.6211,2.1035,0.7039c3.3235,0.3709,6.578-2.0906,6.4536-5.559
			c-0.0361-1.0058-0.3712-1.9927-0.9817-2.7955C41.0361,11.7053,40.4954,11.2138,39.8876,10.8281z M42.2913,11.8235
			c0.4636,0.631,0.8177,1.3468,0.9836,2.1111c0.1355,0.624,0.1442,1.2712,0.0727,1.9057c-0.1346,1.1936-0.5594,2.3616-1.2767,3.325
			c-1.8874,2.5349-5.6413,3.243-8.3618,1.726c-0.9993-0.5573-1.8888-1.3326-2.4485-2.3422
			c-0.6094-1.0992-0.7835-2.4659-0.3222-3.6351c0.155-0.3928,0.3757-0.7556,0.5802-1.125c0.2789-0.5039-0.2448-0.7575-0.5475-1.1091
			c-0.2165-0.2516-0.4799-0.5698-0.4685-0.9243c0.0127-0.3959,0.5075-0.657,0.8026-0.8779
			c0.3691-0.2763,0.7568-0.5279,1.1599-0.7518c1.5887-0.8822,3.4498-1.3429,5.2632-1.0653c0.1263,0.0193,0.252,0.0422,0.377,0.0685
			c1.5914,0.3354,3.0551,1.2466,4.0586,2.5265C42.2072,11.7109,42.2497,11.7669,42.2913,11.8235z"/>
	</g>
	<g>
		<polygon class="st2" points="20.8623,26.5767 22.2491,28.37 21.4076,30.0008 21.8752,33.3547 23.6199,35.0371 25.9253,35.9094 
			27.9192,35.9094 30.4739,34.7255 32.2809,32.9186 32.8417,31.0516 32.8417,28.9931 32.5416,27.1861 30.6608,25.5038 
			28.7916,24.5351 26.7039,24.0083 24.1807,24.5351 21.5759,25.6284 		"/>
		<path class="st3" d="M29.9287,25.4865c-0.5814-0.3689-1.2242-0.6409-1.8954-0.7948c-1.1349-0.2602-2.3251-0.1768-3.4377,0.1481
			c-0.5631,0.1644-1.108,0.3898-1.6263,0.6643c-0.323,0.1711-1.0603,0.5589-1.2091,0.9179
			c-0.1994,0.4808,0.1985,0.728,0.4754,1.0039c0.4944,0.4745,1.2643-0.5131,1.8984-0.7697c2.3649-1.2314,5.3045,0.056,6.1672,2.5314
			c0.5713,1.6393-0.2599,3.16-1.8116,3.8146c-0.7474,0.3153-1.5991,0.4361-2.3769,0.2055
			c-0.9269-0.2747-1.5995-1.0258-1.6728-1.9902c-0.0353-0.465,0.1228-0.9344,0.4395-1.2789
			c0.208-0.2263,0.5016-0.3999,0.8079-0.3737c0.3063,0.0261,0.5947,0.3107,0.5449,0.614c-0.0411,0.2506-0.2813,0.4335-0.3215,0.6843
			c-0.1641,1.0244,1.4242,0.9618,1.9942,0.7101c0.4793-0.2117,0.8262-0.6755,0.9447-1.1859
			c0.1185-0.5104,0.0212-1.0582-0.2189-1.5239c-0.4417-0.8569-1.3536-1.4252-2.3097-1.548
			c-1.5908-0.2044-3.4036,0.729-4.0104,2.2468c-0.3545,0.8868-0.3885,1.8979-0.0943,2.8065
			c0.2942,0.9086,0.9143,1.7079,1.7214,2.2186c0.6302,0.3988,1.3623,0.6211,2.1035,0.7039c3.3235,0.3709,6.578-2.0906,6.4536-5.559
			c-0.0361-1.0058-0.3712-1.9927-0.9817-2.7955C31.0772,26.3637,30.5365,25.8721,29.9287,25.4865z M32.3324,26.4819
			c0.4636,0.631,0.8177,1.3468,0.9836,2.1111c0.1355,0.624,0.1442,1.2712,0.0727,1.9057c-0.1346,1.1936-0.5594,2.3616-1.2767,3.325
			c-1.8874,2.5349-5.6413,3.243-8.3618,1.726c-0.9993-0.5573-1.8888-1.3326-2.4485-2.3422
			c-0.6094-1.0992-0.7835-2.4659-0.3222-3.6351c0.155-0.3928,0.3757-0.7556,0.5802-1.125c0.2789-0.5039-0.2448-0.7575-0.5475-1.1091
			c-0.2165-0.2516-0.48-0.5698-0.4685-0.9243c0.0127-0.3959,0.5075-0.657,0.8026-0.8779c0.3691-0.2763,0.7568-0.5279,1.1599-0.7518
			c1.5887-0.8822,3.4498-1.3429,5.2632-1.0653c0.1263,0.0193,0.252,0.0422,0.377,0.0685c1.5914,0.3354,3.0551,1.2466,4.0586,2.5265
			C32.2483,26.3693,32.2908,26.4253,32.3324,26.4819z"/>
	</g>
	<g>
		<polygon class="st2" points="11.26,11.9183 12.6468,13.7116 11.8054,15.3424 12.273,18.6964 14.0176,20.3787 16.3231,21.2511 
			18.317,21.2511 20.8717,20.0672 22.6786,18.2602 23.2394,16.3932 23.2394,14.3347 22.9393,12.5278 21.0586,10.8454 
			19.1893,9.8768 17.1017,9.35 14.5784,9.8768 11.9737,10.97 		"/>
		<path class="st3" d="M20.3264,10.8281c-0.5814-0.3689-1.2242-0.6409-1.8954-0.7948c-1.1349-0.2602-2.3251-0.1768-3.4377,0.1481
			c-0.5631,0.1644-1.108,0.3898-1.6263,0.6643c-0.323,0.1711-1.0603,0.5589-1.2091,0.9179
			c-0.1994,0.4808,0.1985,0.728,0.4754,1.0039c0.4944,0.4745,1.2643-0.5131,1.8984-0.7697c2.3649-1.2314,5.3045,0.056,6.1672,2.5314
			c0.5713,1.6393-0.2599,3.16-1.8116,3.8146c-0.7474,0.3153-1.5991,0.4361-2.3769,0.2055
			c-0.9269-0.2747-1.5995-1.0258-1.6728-1.9902c-0.0353-0.465,0.1228-0.9344,0.4395-1.2789
			c0.208-0.2263,0.5016-0.3999,0.8079-0.3737c0.3063,0.0261,0.5947,0.3107,0.5449,0.614c-0.0411,0.2506-0.2813,0.4335-0.3215,0.6843
			c-0.1641,1.0244,1.4242,0.9618,1.9942,0.7101c0.4793-0.2117,0.8262-0.6755,0.9447-1.1859
			c0.1185-0.5104,0.0212-1.0582-0.2189-1.5239c-0.4417-0.8569-1.3536-1.4252-2.3097-1.548
			c-1.5908-0.2044-3.4036,0.729-4.0104,2.2468c-0.3545,0.8868-0.3885,1.8979-0.0943,2.8065
			c0.2942,0.9086,0.9143,1.7079,1.7214,2.2186c0.6302,0.3988,1.3623,0.6211,2.1035,0.7039c3.3235,0.3709,6.578-2.0906,6.4536-5.559
			c-0.0361-1.0058-0.3712-1.9927-0.9817-2.7955C21.4749,11.7053,20.9343,11.2138,20.3264,10.8281z M22.7302,11.8235
			c0.4636,0.631,0.8177,1.3468,0.9836,2.1111c0.1355,0.624,0.1442,1.2712,0.0727,1.9057c-0.1346,1.1936-0.5594,2.3616-1.2767,3.325
			c-1.8874,2.5349-5.6413,3.243-8.3618,1.726c-0.9993-0.5573-1.8888-1.3326-2.4485-2.3422
			c-0.6094-1.0992-0.7835-2.4659-0.3222-3.6351c0.155-0.3928,0.3757-0.7556,0.5802-1.125c0.279-0.5039-0.2448-0.7575-0.5475-1.1091
			c-0.2165-0.2516-0.48-0.5698-0.4685-0.9243c0.0127-0.3959,0.5075-0.657,0.8026-0.8779c0.3691-0.2763,0.7568-0.5279,1.1599-0.7518
			c1.5887-0.8822,3.4498-1.3429,5.2632-1.0653c0.1263,0.0193,0.252,0.0422,0.377,0.0685c1.5914,0.3354,3.0551,1.2466,4.0586,2.5265
			C22.6461,11.7109,22.6885,11.7669,22.7302,11.8235z"/>
	</g>
	<g>
		<path class="st2" d="M9.2283,40.2269l2.217-1.7103l0.3832,0.4969c0.5319,0.6896,0.6015,1.4048-0.2237,2.0418
			c-0.6267,0.4829-1.385,0.4569-1.8424-0.1357L9.2283,40.2269z M11.3883,39.0615L9.7697,40.31l0.2466,0.3199
			c0.2538,0.3288,0.8118,0.5189,1.3203,0.1267c0.606-0.4677,0.6236-0.9537,0.2017-1.5005L11.3883,39.0615z"/>
		<path class="st2" d="M12.2396,41.7871c0.5207-0.4528,1.301-0.6757,1.7934-0.1101c0.4811,0.5535,0.1959,1.2799-0.3572,1.7615
			c-0.4425,0.3846-1.2485,0.7871-1.8176,0.1339C11.3061,42.9372,11.7495,42.2135,12.2396,41.7871z M12.5051,42.1011
			c-0.3217,0.2799-0.7094,0.8122-0.3563,1.2179c0.376,0.4322,0.9888,0.0422,1.2529-0.1869c0.3001-0.2619,0.6847-0.8208,0.3477-1.208
			C13.4,41.5225,12.7805,41.8617,12.5051,42.1011z"/>
		<path class="st2" d="M14.8057,46.6659l1.4618-1.4313l-0.0144-0.0171c0,0-0.4403,0.1932-0.4919,0.2102
			c-0.0517,0.0189-1.0229,0.3819-1.0229,0.3819l-0.1842-0.1878c0,0,0.381-0.9632,0.4043-1.0144
			c0.0243-0.0503,0.2188-0.4942,0.2188-0.4942l-0.0171-0.0144l-1.4641,1.4331l-0.2781-0.2839l2.0059-1.9632l0.2911,0.2965
			l-0.6348,1.7107l1.7157-0.6056l0.2952,0.301l-2.0059,1.9632L14.8057,46.6659z"/>
		<path class="st2" d="M16.0187,47.8214l1.9003-2.0477l0.3091,0.2866l-1.9003,2.0477L16.0187,47.8214z"/>
		<path class="st2" d="M17.5767,49.2212l-0.2992-0.2525l1.7947-2.1321l0.257,0.2156l-0.2606,1.6514
			c-0.0058,0.0413-0.097,0.5696-0.1083,0.6379c0.0027,0.0018,0.0027,0.0018,0.0072,0.0054
			c0.1361-0.1617,0.4245-0.5041,1.2804-1.5211l0.2979,0.2507l-1.7947,2.1321l-0.2525-0.212
			c0.0045-0.0225,0.2215-1.4142,0.2871-1.7835c0.013-0.0809,0.084-0.4618,0.1011-0.54l-0.0072-0.0054
			c-0.0737,0.0899-0.1644,0.2004-0.2511,0.3037L17.5767,49.2212z"/>
		<path class="st2" d="M21.1581,52.0461l-1.3706-1.0216l1.6681-2.2381l1.3733,1.0243L22.5876,50.1l-1.0463-0.7799l-0.4879,0.655
			l0.9241,0.6891l-0.2372,0.274l-0.9034-0.673l-0.5135,0.6891l1.0759,0.8015L21.1581,52.0461z"/>
		<path class="st2" d="M30.7661,53.7371l-1.5414-2.3226l0.5207-0.345c0.7228-0.4798,1.4376-0.4987,2.0117,0.3666
			c0.4353,0.6559,0.3558,1.407-0.2651,1.8194L30.7661,53.7371z M29.762,51.5097l1.1249,1.6955l0.3351-0.2219
			c0.3446-0.2291,0.5728-0.77,0.2192-1.3028c-0.4209-0.6343-0.9025-0.6864-1.4758-0.3064L29.762,51.5097z"/>
		<path class="st2" d="M33.4867,51.8511l-1.6892-2.2166l0.3347-0.2552l1.6892,2.2166L33.4867,51.8511z"/>
		<path class="st2" d="M35.9935,49.8116l-1.2161-0.4367l-0.3585,0.3055l0.7269,0.8536l-0.3023,0.257l-1.8159-2.133l0.6168-0.5247
			c0.4254-0.3621,0.885-0.4573,1.292,0.0207c0.2439,0.2857,0.2682,0.6227,0.102,0.9183l1.3181,0.4304L35.9935,49.8116z
			 M33.5663,48.6795l0.6173,0.7242l0.367-0.3127c0.2071-0.1761,0.2794-0.4528,0.0948-0.6703
			c-0.2111-0.248-0.4663-0.2633-0.7242-0.0431L33.5663,48.6795z"/>
		<path class="st2" d="M37.0973,48.8115L35.197,46.763l0.3091-0.2866l1.9003,2.0486L37.0973,48.8115z"/>
		<path class="st2" d="M39.5255,46.4332l-0.2386-0.1977c0.0211,0.2642-0.0274,0.54-0.2143,0.7287
			c-0.5863,0.5921-1.2768,0.327-1.8257-0.2156c-0.4722-0.4681-0.8176-1.2067-0.1986-1.832
			c0.2269-0.2291,0.5791-0.3846,1.0315-0.2695l-0.0571,0.372c-0.3419-0.0737-0.5669,0.0323-0.721,0.1878
			c-0.3747,0.3792-0.133,0.8922,0.2314,1.2525c0.438,0.4331,0.9115,0.5966,1.2664,0.2372c0.1788-0.1806,0.2102-0.4708,0.1658-0.7215
			l-0.239-0.2363l-0.4021,0.4061l-0.2601-0.257l0.6658-0.673l1.0122,0.9991L39.5255,46.4332z"/>
		<path class="st2" d="M41.7012,44.0351l-1.1379,1.2803l-2.0903-1.8581l1.1402-1.2831l0.2687,0.266l-0.8684,0.9776l0.6114,0.5436
			l0.7673-0.8635l0.2538,0.2606l-0.7498,0.8437l0.6433,0.5714l0.8931-1.0045L41.7012,44.0351z"/>
		<path class="st2" d="M43.704,41.6514l-0.2426,0.3077l-2.1959-1.7314l0.2085-0.2642l1.6636,0.2085
			c0.0413,0.004,0.5746,0.0791,0.6429,0.0881c0.0027-0.0031,0.0027-0.0031,0.0058-0.0072
			c-0.1662-0.1316-0.5198-0.4102-1.5665-1.2354l0.2417-0.3068l2.1959,1.7314l-0.2049,0.2601
			c-0.0229-0.004-1.4255-0.177-1.7974-0.2309c-0.0818-0.0103-0.4663-0.0692-0.5445-0.084l-0.0058,0.0076
			c0.093,0.071,0.2067,0.1581,0.3131,0.2421L43.704,41.6514z"/>
		<path class="st2" d="M44.2237,38.7129c-0.5571-0.4061-0.9479-1.1168-0.5067-1.722c0.4317-0.5921,1.2026-0.4762,1.7947-0.0445
			c0.4731,0.3446,1.0449,1.04,0.5346,1.7399C45.5517,39.3657,44.748,39.0952,44.2237,38.7129z M44.4704,38.3841
			c0.3441,0.2507,0.9488,0.5099,1.2651,0.0759c0.3374-0.4627-0.1788-0.9726-0.4614-1.1784
			c-0.3217-0.2345-0.9515-0.4843-1.2534-0.0696C43.7071,37.6415,44.1761,38.1693,44.4704,38.3841z"/>
		<path class="st2" d="M46.8491,36.7102l0.0063-0.3724c0.2785-0.0018,0.4987-0.1056,0.6577-0.3365
			c0.1622-0.2359,0.1339-0.4829-0.1083-0.6492c-0.1285-0.0885-0.2525-0.0723-0.3783-0.0103
			c-0.0624,0.0314-0.1262,0.0755-0.1909,0.1235c-0.0656,0.0494-0.1321,0.1033-0.2013,0.1545
			c-0.2754,0.2071-0.5908,0.3872-1.0072,0.1006c-0.4007-0.2758-0.4816-0.7188-0.2058-1.12
			c0.1959-0.2844,0.5085-0.4214,0.8518-0.4084l0.009,0.3603c-0.2255,0-0.4322,0.0746-0.5638,0.266
			c-0.1487,0.2156-0.0633,0.4457,0.1402,0.5858c0.1271,0.0872,0.248,0.0687,0.3711,0.0049c0.0606-0.0328,0.1231-0.0777,0.186-0.1267
			c0.0642-0.0508,0.1303-0.1042,0.1981-0.1568c0.2695-0.2116,0.5836-0.3926,1.0041-0.1029
			c0.4457,0.3064,0.4775,0.7772,0.1828,1.2058C47.5796,36.5498,47.2418,36.7232,46.8491,36.7102z"/>
	</g>
</g>
<path class="st0" d="M84.2203,27.3403c0,4.1505-3.539,6.2095-7.1744,6.2095c-2.1233,0-3.7319-0.708-5.1476-1.7375l-1.4154,1.5764
	h-0.3218c0-2.6702,0-5.3724-0.0643-8.0432h0.3218c0.8363,5.1481,3.4422,7.32,6.5951,7.32c2.5095,0,4.3112-1.3358,4.3112-3.7164
	c0-2.5092-1.9947-4.0213-4.8582-5.5977c-2.9596-1.6413-6.1449-2.9599-6.1449-6.724c0-3.8932,3.3782-5.9198,6.6918-5.9198
	c1.9304,0,3.6354,0.6755,5.0189,1.6726l1.3513-1.5121h0.3216c0,2.413,0,4.7941,0.0643,7.2066h-0.3216
	c-1.126-4.5039-3.5711-6.3659-6.4346-6.3659c-2.2841,0-3.9249,1.1222-3.9249,3.3741c0,2.6384,2.252,3.957,4.9222,5.3405
	C80.9389,21.9355,84.2203,23.3515,84.2203,27.3403z"/>
<path class="st0" d="M88.5303,16.9809v-4.9552c0.9974-0.2572,2.0269-0.5788,3.0564-0.9971v4.9374h5.5658v1.6586h-5.5658v10.8101
	c0,2.7989,0.8366,4.2467,2.6381,4.2467c1.0938,0,2.1555-0.5469,3.0564-1.3835l0.3861,0.4502
	c-1.1903,1.1906-2.6381,1.8018-4.2145,1.8018c-2.3487,0-4.9225-1.2549-4.9225-5.3086V17.6246V16.9809z"/>
<path class="st0" d="M125.5761,12.7024v18.8528c0,0.8366,0.5469,1.0295,2.413,1.0295v0.4826h-7.8824v-0.4826
	c1.8661,0,2.413-0.1929,2.413-1.0295v-9.137H111.742v9.137c0,0.8366,0.5469,1.0295,2.413,1.0295v0.4826h-7.8821v-0.4826
	c1.8658,0,2.4127-0.1929,2.4127-1.0295V12.7024c0-0.8366-0.5469-1.0295-2.4127-1.0295v-0.4826h7.8821v0.4826
	c-1.8661,0-2.413,0.1929-2.413,1.0295v8.3834h10.7777v-8.3834c0-0.8366-0.5469-1.0295-2.413-1.0295v-0.4826h7.8824v0.4826
	C126.123,11.6728,125.5761,11.8658,125.5761,12.7024z"/>
<path class="st0" d="M133.5195,18.493c0-0.836-0.5791-1.0295-2.059-1.0295v-0.4826l5.1157-0.4826v15.0568
	c0,0.8366,0.4826,1.0295,2.059,1.0295v0.4826h-7.1747v-0.4826c1.5764,0,2.059-0.1929,2.059-1.0295V18.493z M133.1737,13.3577
	c0-1.0319,0.7872-1.7373,1.9003-1.7373s1.8732,0.7054,1.8732,1.7373c0,1.0314-0.7601,1.7373-1.8732,1.7373
	S133.1737,14.3891,133.1737,13.3577z"/>
<path class="st0" d="M143.6212,10.914c0-0.8366-0.5788-1.0295-2.059-1.0295V9.4019l5.1157-0.4826v22.6358
	c0,0.8366,0.4826,1.0295,2.059,1.0295v0.4826h-7.1747v-0.4826c1.577,0,2.059-0.1929,2.059-1.0295V10.914z"/>
<path class="st0" d="M169.1623,31.4584c-0.2578,1.2549-1.4478,2.0914-2.8637,2.0914c-1.9623,0-2.9275-1.6088-2.9275-3.7965
	c-0.7723,2.059-2.4449,3.7965-5.4048,3.7965c-3.9894,0-6.8531-3.2172-6.8531-8.3328c0-5.1476,2.8956-8.7187,6.9174-8.7187
	c2.7346,0,4.5039,1.6413,5.3405,3.6036l-0.0643-8.8473c0-0.8366-0.4826-1.3676-2.059-1.3676V9.4043l5.0189-0.4826v22.0541
	c0,0.9333,0.2897,1.577,1.0938,1.577c0.7399,0,1.1581-0.5474,1.4797-1.2549L169.1623,31.4584z M163.21,26.7291v-4.0537
	c0-2.7989-2.059-5.1801-4.7612-5.1801c-3.0567,0-4.0219,3.2822-4.0219,7.4002c0,4.5363,1.1581,7.6894,4.118,7.6894
	C161.2153,32.5849,163.21,30.2041,163.21,26.7291z"/>
<path class="st0" d="M185.7853,31.4584c-0.2572,1.2549-1.4478,2.0914-2.8632,2.0914c-1.9628,0-2.928-1.6088-2.928-3.5711
	c-0.7717,2.0914-2.3806,3.5711-5.0833,3.5711c-2.8307,0-4.311-1.7694-4.311-4.0213c0-3.7003,4.311-4.6974,9.2337-4.7941v-3.8927
	c0-2.5735-1.0619-3.4407-2.5741-3.4407c-1.8337,0-2.9599,1.4141-2.9599,4.4383c-1.6407,0-2.7021-0.8366-2.7021-2.059
	c0-1.9628,2.7021-3.282,5.7588-3.282c2.9918,0,5.5334,1.2873,5.5334,5.9522v8.5252c0,0.9333,0.2897,1.577,1.0938,1.577
	c0.7398,0,1.1581-0.5474,1.4802-1.2549L185.7853,31.4584z M179.8336,28.0807v-2.5401c-4.2148,0.1292-6.0166,1.1566-6.0166,3.6658
	c0,1.9628,0.9976,3.121,2.3811,3.121C177.9994,32.3274,179.8336,30.558,179.8336,28.0807z"/>
<path class="st0" d="M188.3667,12.2907c0,1.6212-1.3753,3.9303-2.4808,5.0849L185.64,17.204
	c0.5405-1.032,0.909-2.2109,0.9581-3.2429c-0.8352-0.0491-1.6947-0.4667-1.6947-1.7194c0-1.1545,0.7122-1.8915,1.7686-1.8915
	C187.7036,10.3501,188.3667,11.0871,188.3667,12.2907z"/>
<path class="st0" d="M199.4751,19.555c0,0.5788-0.2248,1.0295-0.5788,1.3192c-0.4183,0.3534-0.9976,0.5145-1.6407,0.5145
	c0-2.6378-1.1587-3.9472-3.121-3.9472c-1.7375,0-3.0885,0.923-3.0885,2.5318c0,2.0266,2.0271,2.8956,4.2467,3.8608
	c2.3487,1.0295,4.6006,2.252,4.6006,4.9865c0,2.6059-2.0266,4.7293-6.1771,4.7293c-3.3782,0-5.5015-1.3835-5.5015-3.2172
	c0-0.708,0.3221-1.1906,0.7404-1.5445c0.5145-0.3859,1.19-0.5469,1.8013-0.5469c0.354,3.7641,2.0914,4.665,3.6679,4.665
	c1.4478,0,3.1204-0.7398,3.1204-2.7021c0-2.1233-1.9947-3.2172-3.8603-4.0862c-2.1882-1.0295-4.9546-2.0909-4.9546-5.0832
	c0-2.4449,1.898-4.5363,5.6945-4.5363C197.3199,16.4983,199.4751,17.6889,199.4751,19.555z"/>
<g>
	<path class="st0" d="M75.8491,46.5829l-2.4242-6.0144h-0.2384l-2.1704,5.4537c-0.2022,0.5055-0.4308,0.7021-0.8153,0.7021h-0.1361
		v0.4077h2.173v-0.4077h-0.1361c-0.3481,0-0.6423-0.1244-0.6423-0.2716c0-0.0702,0.0633-0.2833,0.3651-1.0768h2.2573
		c0.3657,0.9397,0.4728,1.2315,0.4722,1.2953c-0.0423,0.0532-0.3845,0.0532-0.4969,0.0532h-0.1361v0.4077h2.5804v-0.4077h-0.1361
		C75.9291,46.7243,75.8919,46.6876,75.8491,46.5829z M72.0117,44.8954c0.2203-0.5613,0.5246-1.3282,0.9485-2.3827l0.9336,2.3827
		H72.0117z"/>
	<path class="st0" d="M82.9305,40.7045h-2.1279v0.4077h0.1361c0.5894,0,0.7691,0.1903,0.7691,0.8143v3.1029L78.39,40.7045h-1.6968
		v0.4077h0.1361c0.5607,0,0.5607,0.0643,0.5607,0.1536v4.6437c0,0.6973-0.173,0.8148-0.5607,0.8148h-0.1361v0.4077h2.1276v-0.4077
		h-0.1361c-0.5894,0-0.7691-0.1903-0.7691-0.8148v-3.9538l4.0606,5.2847h0.2572v-5.3139c0-0.6968,0.173-0.8143,0.561-0.8143h0.1361
		V40.7045z"/>
	<path class="st0" d="M86.8198,44.6153h0.1361c0.4433,0,0.4433,0.0547,0.4433,0.1536v0.9508c0,0.6755-0.4473,1.0949-1.1674,1.0949
		c-1.1563,0-1.8193-1.0789-1.8193-2.9599c0-1.8268,0.6171-2.8329,1.7377-2.8329c1.2573,0,1.8018,1.2703,2.0144,2.0277l0.0279,0.0994
		h0.3348l-0.0051-0.1408c-0.0274-0.7489-0.0274-1.5164-0.0274-2.2583v-0.1361H88.199l-0.2952,0.4071
		c-0.4252-0.2929-0.9936-0.4523-1.6179-0.4523c-1.8496,0-3.1414,1.3771-3.1414,3.3495c0,1.941,1.2945,3.3495,3.0782,3.3495
		c0.7356,0,1.3367-0.2344,1.7547-0.6814l0.232,0.6362h0.3218v-2.4534c0-0.0989,0-0.1536,0.4433-0.1536h0.1361v-0.4077h-2.2908
		V44.6153z"/>
	<path class="st0" d="M93.6831,45.0623c-0.3091,1.2623-0.6038,1.5892-1.434,1.5892h-1.1765v-5.3857c0-0.0824,0-0.1536,0.561-0.1536
		h0.1361v-0.4077h-2.5259v0.4077h0.1361c0.5607,0,0.5607,0.0712,0.5607,0.1536v5.3049c0,0.0824,0,0.1536-0.5607,0.1536h-0.1361
		v0.4077h4.6692l0.1863-2.1733h-0.3909L93.6831,45.0623z"/>
	<path class="st0" d="M94.661,41.1122h0.1361c0.4433,0,0.4433,0.0516,0.4433,0.1536v5.3049c0,0.102,0,0.1536-0.4433,0.1536H94.661
		v0.4077h2.3088v-0.4077h-0.1361c-0.4613,0-0.4613-0.0611-0.4613-0.1536v-5.3049c0-0.0957,0-0.1536,0.4613-0.1536h0.1361v-0.4077
		H94.661V41.1122z"/>
	<path class="st0" d="M102.4813,46.0413l-0.3269-0.2812l-0.0882,0.1084c-0.4552,0.5597-1.0635,0.8557-1.759,0.8557
		c-1.1616,0-1.8012-1.08-1.8012-3.0412c0-1.6662,0.6022-2.6612,1.611-2.6612c0.8589,0,1.5498,0.7388,1.8964,2.0261l0.0268,0.101
		h0.3362l-0.0051-0.1408c-0.0271-0.7489-0.0271-1.5164-0.0271-2.2583v-0.1361h-0.2968l-0.2931,0.4119
		c-0.4148-0.3035-0.9163-0.4571-1.4924-0.4571c-1.7803,0-3.0237,1.3883-3.0237,3.3766c0,1.9873,1.2041,3.3224,2.9966,3.3224
		c0.8855,0,1.6577-0.3997,2.1746-1.1247L102.4813,46.0413z"/>
	<path class="st0" d="M108.2946,46.5829l-2.4242-6.0144h-0.2384l-2.1704,5.4537c-0.2022,0.5055-0.4308,0.7021-0.8153,0.7021h-0.1361
		v0.4077h2.173v-0.4077h-0.1361c-0.3481,0-0.6423-0.1244-0.6423-0.2716c0-0.0702,0.0632-0.2833,0.3651-1.0768h2.2573
		c0.3657,0.9397,0.4728,1.2315,0.4722,1.2953c-0.0423,0.0532-0.3845,0.0532-0.4969,0.0532h-0.1361v0.4077h2.5804v-0.4077h-0.1361
		C108.3746,46.7243,108.3374,46.6876,108.2946,46.5829z M104.4572,44.8954c0.2203-0.5613,0.5246-1.3282,0.9485-2.3827l0.9336,2.3827
		H104.4572z"/>
	<path class="st0" d="M113.2424,41.1122h0.1361c0.5894,0,0.7691,0.1903,0.7691,0.8143v3.1029l-3.3179-4.3248h-1.6968v0.4077h0.1361
		c0.5607,0,0.5607,0.0643,0.5607,0.1536v4.6437c0,0.6973-0.173,0.8148-0.5607,0.8148h-0.1361v0.4077h2.1276v-0.4077h-0.1361
		c-0.5894,0-0.7691-0.1903-0.7691-0.8148v-3.9538l4.0606,5.2847h0.2572v-5.3139c0-0.6968,0.173-0.8143,0.561-0.8143h0.1361v-0.4077
		h-2.1278V41.1122z"/>
	<path class="st0" d="M120.8914,43.395l-0.1501-0.0771c-0.768-0.3981-1.3115-0.7303-1.3115-1.3819
		c0-0.5469,0.3891-0.9142,0.9681-0.9142c0.7826,0,1.3944,0.6521,1.6785,1.7885l0.0258,0.1031h0.3364l-0.0037-0.1398
		c-0.0181-0.6766-0.0181-1.3314-0.0181-2.0239v-0.1361h-0.2873l-0.341,0.3816c-0.426-0.2796-0.9044-0.4268-1.3907-0.4268
		c-1.0032,0-2.0189,0.6187-2.0189,1.8018c0,1.038,0.7922,1.4659,1.5581,1.8799l0.2413,0.1313
		c0.8004,0.4406,1.2966,0.8376,1.2966,1.4558c0,0.5846-0.4329,0.9774-1.0771,0.9774c-0.886,0-1.5134-0.734-1.7213-2.0133
		l-0.0183-0.1143h-0.3457l0.0032,0.1393c0.0181,0.7499,0.0181,1.5174,0.0181,2.2599v0.1361h0.2873l0.3582-0.3986
		c0.4499,0.3024,0.9065,0.4438,1.4276,0.4438c1.0378,0,2.1547-0.5894,2.1547-1.8831
		C122.5617,44.2475,121.6743,43.7941,120.8914,43.395z"/>
	<path class="st0" d="M127.8608,45.8686c-0.4552,0.5597-1.0635,0.8557-1.759,0.8557c-1.1616,0-1.8012-1.08-1.8012-3.0412
		c0-1.6662,0.6022-2.6612,1.611-2.6612c0.8589,0,1.5499,0.7388,1.8964,2.0261l0.0268,0.101h0.3362l-0.0051-0.1408
		c-0.0271-0.7489-0.0271-1.5164-0.0271-2.2583v-0.1361h-0.2968l-0.2931,0.4119c-0.4148-0.3035-0.9163-0.4571-1.4924-0.4571
		c-1.7803,0-3.0237,1.3883-3.0237,3.3766c0,1.9873,1.2041,3.3224,2.9966,3.3224c0.8855,0,1.6577-0.3997,2.1746-1.1247l0.072-0.1015
		l-0.3269-0.2812L127.8608,45.8686z"/>
	<path class="st0" d="M132.6834,41.1122h0.1361c0.5429,0,0.5429,0.0643,0.5429,0.1536v2.3806h-2.7603v-2.3806
		c0-0.0893,0-0.1536,0.5429-0.1536h0.1361v-0.4077h-2.4898v0.4077h0.1361c0.5427,0,0.5427,0.0643,0.5427,0.1536v5.3049
		c0,0.0893,0,0.1536-0.5427,0.1536h-0.1361v0.4077h2.4898v-0.4077h-0.1361c-0.5429,0-0.5429-0.0643-0.5429-0.1536v-2.4348h2.7603
		v2.4348c0,0.0893,0,0.1536-0.5429,0.1536h-0.1361v0.4077h2.4898v-0.4077h-0.1361c-0.5427,0-0.5427-0.0643-0.5427-0.1536v-5.3049
		c0-0.0893,0-0.1536,0.5427-0.1536h0.1361v-0.4077h-2.4898V41.1122z"/>
	<path class="st0" d="M138.5147,40.5685c-1.7805,0-3.0237,1.3771-3.0237,3.3495s1.2432,3.3495,3.0237,3.3495
		s3.0237-1.3771,3.0237-3.3495S140.2952,40.5685,138.5147,40.5685z M138.5147,41.0218c1.0662,0,1.7555,1.1369,1.7555,2.8961
		c0,1.7598-0.6894,2.8967-1.7555,2.8967c-1.0667,0-1.7561-1.1369-1.7561-2.8967C136.7586,42.1587,137.448,41.0218,138.5147,41.0218z
		"/>
	<path class="st0" d="M145.0606,40.5685c-1.7805,0-3.0237,1.3771-3.0237,3.3495s1.2432,3.3495,3.0237,3.3495
		s3.0237-1.3771,3.0237-3.3495S146.8412,40.5685,145.0606,40.5685z M145.0606,41.0218c1.0662,0,1.7555,1.1369,1.7555,2.8961
		c0,1.7598-0.6894,2.8967-1.7555,2.8967c-1.0667,0-1.7561-1.1369-1.7561-2.8967C143.3046,42.1587,143.9939,41.0218,145.0606,41.0218
		z"/>
	<path class="st0" d="M152.8879,45.0623c-0.3093,1.2623-0.6043,1.5892-1.434,1.5892h-1.1762v-5.3857
		c0-0.0824,0-0.1536,0.5607-0.1536h0.1361v-0.4077h-2.5262v0.4077h0.1361c0.5613,0,0.5613,0.0712,0.5613,0.1536v5.3049
		c0,0.0824,0,0.1536-0.5613,0.1536h-0.1361v0.4077h4.6692l0.1866-2.1733h-0.3907L152.8879,45.0623z"/>
	<path class="st0" d="M155.8166,41.1122h0.1361c0.5613,0,0.5613,0.068,0.5613,0.1536v5.3049c0,0.0856,0,0.1536-0.5613,0.1536
		h-0.1361v0.4077h2.7346v-0.4077h-0.1361c-0.7122,0-0.7691-0.0664-0.7691-0.1536V44.181h0.8685c0.5299,0,0.6899,0,0.9089,0.9269
		l0.0244,0.1047h0.3795V42.678h-0.3779l-0.0255,0.1031c-0.2206,0.8802-0.3822,0.9195-0.9094,0.9195h-0.8685v-2.5161h1.0136
		c0.961,0,1.3782,0.3545,1.5403,1.308l0.0191,0.1132h0.3869v-1.9012h-4.7893V41.1122z"/>
	<path class="st0" d="M164.0997,40.5685c-1.7805,0-3.0237,1.3771-3.0237,3.3495s1.2432,3.3495,3.0237,3.3495
		s3.0237-1.3771,3.0237-3.3495S165.8802,40.5685,164.0997,40.5685z M164.0997,41.0218c1.0662,0,1.7555,1.1369,1.7555,2.8961
		c0,1.7598-0.6893,2.8967-1.7555,2.8967c-1.0667,0-1.7561-1.1369-1.7561-2.8967C162.3436,42.1587,163.033,41.0218,164.0997,41.0218z
		"/>
	<path class="st0" d="M172.69,46.4617c-0.1371,0.1286-0.2705,0.244-0.396,0.244c-0.2424,0-0.3301-0.5416-0.4002-0.9764
		c-0.0181-0.1105-0.0351-0.2184-0.0547-0.3157c-0.1377-0.7149-0.4698-1.1757-1.0322-1.4207
		c0.8153-0.2844,1.2884-0.8717,1.2884-1.6317c0-1.0375-0.8461-1.6567-2.2631-1.6567h-2.5895v0.4077h0.1361
		c0.5522,0,0.5522,0.068,0.5522,0.1536v5.3049c0,0.0856,0,0.1536-0.5522,0.1536h-0.1361v0.4077h2.5352v-0.4077h-0.1361
		c-0.5788,0-0.5788-0.068-0.5788-0.1536v-2.3806h0.5065c0.6846,0,0.8531,0.5894,1.071,1.5509
		c0.1786,0.785,0.3465,1.5265,1.2644,1.5265c0.6707,0,0.9764-0.4013,1.0768-0.5331l0.0717-0.0941l-0.2673-0.2689L172.69,46.4617z
		 M169.0631,41.1845h0.5336c0.8111,0,1.2761,0.4486,1.2761,1.2309c0,0.8105-0.4938,1.2942-1.3213,1.2942h-0.4884V41.1845z"/>
	<path class="st0" d="M179.0393,44.6153h0.1361c0.4433,0,0.4433,0.0547,0.4433,0.1536v0.9508c0,0.6755-0.447,1.0949-1.1672,1.0949
		c-1.156,0-1.8193-1.0789-1.8193-2.9599c0-1.8268,0.6171-2.8329,1.738-2.8329c1.2575,0,1.8018,1.2703,2.0144,2.0277l0.0276,0.0994
		h0.3343l-0.0048-0.1408c-0.0271-0.7489-0.0271-1.5164-0.0271-2.2583v-0.1361h-0.296l-0.295,0.4071
		c-0.4257-0.2929-0.9939-0.4523-1.6179-0.4523c-1.8496,0-3.1412,1.3771-3.1412,3.3495c0,1.941,1.2942,3.3495,3.0779,3.3495
		c0.7356,0,1.3372-0.2344,1.7545-0.6809l0.2323,0.6357h0.3215v-2.4534c0-0.0989,0-0.1536,0.4433-0.1536h0.1361v-0.4077h-2.2908
		V44.6153z"/>
	<path class="st0" d="M181.6208,41.1122h0.1361c0.4433,0,0.4433,0.0516,0.4433,0.1536v5.3049c0,0.102,0,0.1536-0.4433,0.1536
		h-0.1361v0.4077h2.3088v-0.4077h-0.1361c-0.4613,0-0.4613-0.0579-0.4613-0.1536v-5.3049c0-0.0957,0-0.1536,0.4613-0.1536h0.1361
		v-0.4077h-2.3088V41.1122z"/>
	<path class="st0" d="M189.9188,46.4617c-0.1371,0.1286-0.2705,0.244-0.396,0.244c-0.2424,0-0.3301-0.5416-0.4002-0.9764
		c-0.0181-0.1105-0.0351-0.2184-0.0547-0.3157c-0.1376-0.7149-0.4698-1.1757-1.0322-1.4207
		c0.8153-0.2844,1.2883-0.8717,1.2883-1.6317c0-1.0375-0.8461-1.6567-2.2631-1.6567h-2.5895v0.4077h0.1361
		c0.5522,0,0.5522,0.068,0.5522,0.1536v5.3049c0,0.0856,0,0.1536-0.5522,0.1536h-0.1361v0.4077h2.5352v-0.4077h-0.1361
		c-0.5788,0-0.5788-0.068-0.5788-0.1536v-2.3806h0.5065c0.6846,0,0.853,0.5894,1.071,1.5509
		c0.1786,0.785,0.3465,1.5265,1.2644,1.5265c0.6707,0,0.9763-0.4013,1.0768-0.5331l0.0717-0.0941l-0.2673-0.2689L189.9188,46.4617z
		 M186.2918,41.1845h0.5336c0.8111,0,1.2761,0.4486,1.2761,1.2309c0,0.8105-0.4938,1.2942-1.3213,1.2942h-0.4884V41.1845z"/>
	<path class="st0" d="M194.9021,45.0623c-0.3093,1.2623-0.6043,1.5892-1.434,1.5892h-1.1762v-5.3857
		c0-0.0824,0-0.1536,0.5607-0.1536h0.1361v-0.4077h-2.5262v0.4077h0.1361c0.5613,0,0.5613,0.0712,0.5613,0.1536v5.3049
		c0,0.0824,0,0.1536-0.5613,0.1536h-0.1361v0.4077h4.6692l0.1866-2.1733h-0.3907L194.9021,45.0623z"/>
	<path class="st0" d="M198.33,43.395l-0.1504-0.0771c-0.768-0.3981-1.3118-0.7303-1.3118-1.3819
		c0-0.5469,0.3891-0.9142,0.9684-0.9142c0.7824,0,1.3941,0.6521,1.6785,1.7885l0.0255,0.1031h0.3364l-0.0037-0.1398
		c-0.0181-0.6766-0.0181-1.3314-0.0181-2.0239v-0.1361h-0.2875l-0.3407,0.3816c-0.4263-0.2796-0.9046-0.4268-1.3904-0.4268
		c-1.0035,0-2.0192,0.6187-2.0192,1.8018c0,1.0385,0.7925,1.4664,1.5589,1.8799l0.2408,0.1313
		c0.8004,0.4406,1.2963,0.8376,1.2963,1.4558c0,0.5846-0.4326,0.9774-1.0768,0.9774c-0.886,0-1.5137-0.734-1.7215-2.0133
		l-0.0186-0.1143h-0.3455l0.0032,0.1393c0.0181,0.7499,0.0181,1.5174,0.0181,2.2599v0.1361h0.287l0.3588-0.3986
		c0.4496,0.3024,0.9062,0.4438,1.4276,0.4438c1.038,0,2.1547-0.5894,2.1547-1.8831C200,44.2475,199.1129,43.7941,198.33,43.395z"/>
</g>
</svg>
